<svg width="377" height="178" viewBox="0 0 377 178" fill="none" xmlns="http://www.w3.org/2000/svg">
<g filter="url(#filter0_d_33_18)">
<path d="M190.94 169.8C183.74 169.8 177.273 168.4 171.54 165.6C165.94 162.8 161.473 158.867 158.14 153.8C154.807 148.733 153.14 142.8 153.14 136C153.14 135.2 153.14 134.467 153.14 133.8C153.14 133 153.207 132.2 153.34 131.4C146.94 130.733 141.073 129.4 135.74 127.4C130.54 125.4 126.407 122.667 123.34 119.2C120.273 115.6 118.74 111.2 118.74 106C118.74 101.2 120.207 96.6667 123.14 92.4C126.073 88 129.74 83.9333 134.14 80.2C138.673 76.3333 143.407 73 148.34 70.2C157.54 64.6 166.54 60.4 175.34 57.6C173.607 55.4667 172.207 53 171.14 50.2C170.207 47.2667 169.74 44.4667 169.74 41.8C169.74 37 171.473 32.7333 174.94 29C178.54 25.1333 183.14 21.8667 188.74 19.2C194.34 16.5333 200.273 14.4667 206.54 13C212.807 11.5333 218.607 10.8 223.94 10.8C238.073 10.8 245.14 15.1333 245.14 23.8C245.14 27.8 243.607 31.2667 240.54 34.2C237.473 37.1333 234.073 38.6 230.34 38.6C226.74 38.6 224.94 37.6667 224.94 35.8C224.94 34.4667 225.807 33.8 227.54 33.8C228.073 33.8 228.74 33.9333 229.54 34.2C229.807 34.3333 230.273 34.4 230.94 34.4C232.673 34.4 234.34 33.4 235.94 31.4C238.073 28.8667 239.14 26.4667 239.14 24.2C239.14 20.6 237.073 18 232.94 16.4C230.273 15.4667 226.873 15 222.74 15C217.407 15 212.073 15.9333 206.74 17.8C201.54 19.5333 196.74 22 192.34 25.2C188.073 28.2667 184.607 31.8 181.94 35.8C179.273 39.8 177.94 44.0667 177.94 48.6C177.94 51.8 178.74 54.3333 180.34 56.2C185.407 54.7333 189.873 54 193.74 54C201.473 54 205.34 55.5333 205.34 58.6C205.34 60.3333 204.207 61.8667 201.94 63.2C199.673 64.4 197.207 65 194.54 65C187.873 65 182.207 63.2667 177.54 59.8C173.807 60.8667 169.873 62.5333 165.74 64.8C161.607 67.0667 157.273 69.8667 152.74 73.2C146.607 77.7333 141.273 82.8 136.74 88.4C132.207 93.8667 129.94 99.7333 129.94 106C129.94 117.867 138.007 124.467 154.14 125.8C155.607 116.333 158.74 107.8 163.54 100.2C168.473 92.6 174.94 86.3333 182.94 81.4C187.473 78.6 192.607 76.4 198.34 74.8C204.207 73.0667 210.073 71.7333 215.94 70.8C221.94 69.7333 227.407 68.8 232.34 68C238.873 66.9333 244.14 65.7333 248.14 64.4C252.14 63.0667 255.14 61.6667 257.14 60.2C258.607 59.1333 259.673 57.9333 260.34 56.6C261.14 55.2667 261.54 54.0667 261.54 53C261.54 52.2 261.407 51.4667 261.14 50.8C260.873 50 261.207 49.6 262.14 49.6C263.073 49.6 263.807 50.2 264.34 51.4C264.873 52.6 265.14 53.7333 265.14 54.8C265.14 57.4667 263.807 60.3333 261.14 63.4C258.207 66.3333 254.673 68.5333 250.54 70C246.407 71.4667 242.073 72.6 237.54 73.4C233.007 74.2 228.54 75.1333 224.14 76.2C226.673 78.6 227.94 82.2 227.94 87C227.94 96.8667 222.34 106.333 211.14 115.4C203.407 121.533 195.14 125.8 186.34 128.2C177.673 130.467 168.34 131.6 158.34 131.6C158.207 132.4 158.073 133.267 157.94 134.2C157.94 135 157.94 135.8 157.94 136.6C157.94 145.533 160.94 152.8 166.94 158.4C173.073 164 181.073 166.8 190.94 166.8C194.273 166.8 197.14 165.667 199.54 163.4C201.94 161.267 203.14 158.8 203.14 156C203.14 155.067 202.94 154.133 202.54 153.2C202.407 152.933 202.34 152.6 202.34 152.2C202.34 151.4 202.873 151 203.94 151C205.407 151 206.14 152.733 206.14 156.2C206.14 159.8 204.607 162.933 201.54 165.6C198.473 168.4 194.94 169.8 190.94 169.8ZM193.54 61.8C196.873 61.8 198.807 61 199.34 59.4C199.473 58.0667 197.54 57.4 193.54 57.4C190.34 57.4 186.74 57.8 182.74 58.6C186.073 60.7333 189.673 61.8 193.54 61.8ZM158.94 126C167.607 126 176.473 124.6 185.54 121.8C194.74 119 202.473 114.733 208.74 109C217.14 101.4 221.34 93.6 221.34 85.6C221.34 79.7333 218.807 76.8 213.74 76.8C212.273 76.8 209.007 77.4 203.94 78.6C178.207 88.2 163.207 104 158.94 126Z" fill="#B49765" fill-opacity="0.5"/>
<path d="M17.92 42.9C13.48 42.9 10.04 41.72 7.6 39.36C5.2 37 4 33.94 4 30.18C4 26.74 4.84 23.38 6.52 20.1C8.24 16.82 10.4 13.8 13 11.04C15.12 8.8 17.54 6.86 20.26 5.22C23.02 3.58 25.9 2.3 28.9 1.38C31.94 0.46 34.9 0 37.78 0C40.06 0 42.12 0.320001 43.96 0.960002C45.8 1.56 47.26 2.52 48.34 3.84C49.42 5.16 49.96 6.88 49.96 9C49.96 10.88 49.5 12.64 48.58 14.28C47.7 15.88 46.5 17.28 44.98 18.48C43.5 19.68 41.86 20.62 40.06 21.3C38.26 21.98 36.44 22.32 34.6 22.32C32.2 22.32 30.18 21.78 28.54 20.7C26.9 19.58 26.08 18.18 26.08 16.5C26.08 14.34 27.46 12.22 30.22 10.14C30.7 9.78 31.08 9.6 31.36 9.6C31.56 9.6 31.66 9.68 31.66 9.84C31.66 10.24 31.34 10.56 30.7 10.8C28.46 12.6 27.34 14.42 27.34 16.26C27.34 17.58 27.94 18.7 29.14 19.62C30.34 20.5 31.84 20.94 33.64 20.94C35.24 20.94 36.84 20.6 38.44 19.92C40.08 19.24 41.58 18.32 42.94 17.16C44.3 16 45.38 14.7 46.18 13.26C47.02 11.78 47.44 10.24 47.44 8.64C47.44 6.04 46.56 4.14 44.8 2.94C43.04 1.74 40.8 1.14 38.08 1.14C35 1.14 31.94 1.72 28.9 2.88C25.9 4.04 23.08 5.64 20.44 7.68C17.8 9.72 15.44 12.06 13.36 14.7C9.2 19.94 7.12 24.86 7.12 29.46C7.12 31.9 7.68 33.98 8.8 35.7C9.92 37.38 11.46 38.66 13.42 39.54C15.42 40.42 17.7 40.86 20.26 40.86C24.06 40.86 27.74 40.04 31.3 38.4C34.86 36.72 37.9 34.48 40.42 31.68C41.1 30.96 41.6 30.6 41.92 30.6C42.16 30.6 42.28 30.78 42.28 31.14C42.28 31.62 42.06 32.08 41.62 32.52C40.26 33.96 38.64 35.3 36.76 36.54C34.88 37.78 32.86 38.88 30.7 39.84C28.58 40.8 26.42 41.54 24.22 42.06C22.02 42.62 19.92 42.9 17.92 42.9Z" fill="white"/>
<path d="M44.0552 39.3C42.8952 39.3 42.3152 38.96 42.3152 38.28C42.3152 37.88 42.5552 37.24 43.0352 36.36C44.8752 33.08 46.5152 30.18 47.9552 27.66C49.4352 25.1 50.7352 22.94 51.8552 21.18C56.6152 13.54 59.9752 9.4 61.9352 8.76C62.0152 8.76 62.0752 8.76 62.1152 8.76C62.1552 8.72 62.1952 8.7 62.2352 8.7C62.7552 8.7 63.0952 9.12 63.2552 9.96C63.1352 10.8 61.0552 13.84 57.0152 19.08C54.8952 21.76 53.2352 23.98 52.0352 25.74C50.8752 27.46 50.1552 28.72 49.8752 29.52C51.1952 28.56 52.6152 27.54 54.1352 26.46C55.6552 25.38 57.1352 24.36 58.5752 23.4C60.0152 22.4 61.3152 21.6 62.4752 21C63.6352 20.36 64.5352 20 65.1752 19.92C65.2552 19.92 65.3552 19.92 65.4752 19.92C65.5952 19.88 65.6752 19.86 65.7152 19.86C66.8352 19.86 67.3952 20.38 67.3952 21.42C67.3952 21.7 67.0352 22.32 66.3152 23.28C65.5952 24.24 64.4952 25.72 63.0152 27.72C60.3752 31.24 59.0552 33.88 59.0552 35.64C59.0552 36.56 59.3952 37.02 60.0752 37.02C60.7952 36.98 61.6152 36.66 62.5352 36.06C63.4952 35.46 64.4552 34.72 65.4152 33.84C66.3752 32.96 67.2352 32.1 67.9952 31.26C68.7952 30.38 69.3952 29.7 69.7952 29.22C70.1552 28.86 70.4352 28.68 70.6352 28.68C70.7952 28.68 70.8752 28.76 70.8752 28.92C70.8752 29.24 70.7152 29.62 70.3952 30.06C69.9152 30.66 69.1952 31.44 68.2352 32.4C67.3152 33.36 66.2952 34.34 65.1752 35.34C64.0952 36.3 63.0552 37.12 62.0552 37.8C61.0952 38.44 60.3752 38.76 59.8952 38.76C57.5352 38.76 56.3552 37.38 56.3552 34.62C56.3552 33.06 57.0752 31.02 58.5152 28.5C59.0752 27.54 59.6552 26.58 60.2552 25.62C60.8552 24.66 61.4552 23.7 62.0552 22.74C56.9352 25.3 52.2952 29.08 48.1352 34.08C47.6152 34.8 47.0752 35.58 46.5152 36.42C45.9552 37.22 45.4552 37.9 45.0152 38.46C44.5752 39.02 44.2552 39.3 44.0552 39.3Z" fill="white"/>
<path d="M80.4737 39.3C78.7537 39.3 77.5738 38.86 76.9338 37.98C76.2938 37.06 75.9737 35.84 75.9737 34.32C75.9737 32.64 76.4938 30.64 77.5338 28.32C77.9338 27.4 78.3537 26.58 78.7937 25.86C79.2337 25.1 79.6938 24.4 80.1738 23.76C80.0138 23.8 79.8738 23.82 79.7538 23.82C79.6338 23.82 79.5138 23.82 79.3938 23.82C78.4338 23.82 77.6338 23.14 76.9938 21.78L72.5537 27.54C70.1937 30.62 68.7537 32.16 68.2337 32.16C68.0337 32.16 67.9338 32.08 67.9338 31.92C67.9338 31.72 68.0337 31.46 68.2337 31.14C68.3537 30.9 68.5938 30.58 68.9538 30.18C70.4738 28.42 71.8737 26.68 73.1537 24.96C74.4337 23.24 75.4937 21.56 76.3337 19.92C77.2537 16.44 78.4138 14.7 79.8138 14.7C80.7338 14.7 81.1937 15.12 81.1937 15.96C81.1937 16.72 80.6937 17.72 79.6937 18.96C78.7337 20.2 78.2538 20.84 78.2538 20.88C78.2538 21.72 78.8738 22.14 80.1138 22.14C80.8338 22.14 81.6337 21.88 82.5137 21.36L84.0738 20.4C84.1538 20.36 84.2738 20.34 84.4338 20.34C84.9138 20.34 85.3337 20.54 85.6937 20.94C86.0537 21.34 86.1737 21.7 86.0537 22.02L81.9137 27.24C79.3537 30.52 78.0738 33.16 78.0738 35.16C78.0738 36.96 78.9538 37.86 80.7138 37.86C81.9138 37.86 83.1937 37.5 84.5537 36.78C85.9537 36.06 87.2938 35.18 88.5738 34.14C89.8938 33.06 90.9937 32.02 91.8737 31.02L93.3138 29.34C93.3938 29.26 93.4937 29.16 93.6137 29.04C93.7337 28.92 93.8337 28.86 93.9137 28.86C94.1937 28.86 94.3338 29 94.3338 29.28C94.3338 29.36 94.2938 29.5 94.2138 29.7C94.1338 29.9 93.9938 30.12 93.7938 30.36L91.8737 32.52C90.9537 33.56 89.8138 34.62 88.4538 35.7C87.1338 36.74 85.7538 37.6 84.3138 38.28C82.9138 38.96 81.6337 39.3 80.4737 39.3Z" fill="white"/>
<path d="M105.107 18.36C104.427 18.36 103.827 18.14 103.307 17.7C102.827 17.26 102.587 16.76 102.587 16.2C102.587 15.08 103.347 14.52 104.867 14.52C105.427 14.52 105.987 14.72 106.547 15.12C107.107 15.48 107.387 15.94 107.387 16.5C107.387 16.98 107.127 17.42 106.607 17.82C106.087 18.18 105.587 18.36 105.107 18.36ZM94.007 39.66C93.127 39.66 92.407 39.38 91.847 38.82C91.247 38.22 90.947 37.18 90.947 35.7C90.947 34.86 91.147 33.9 91.547 32.82C91.907 31.7 92.367 30.58 92.927 29.46C93.527 28.34 94.107 27.34 94.667 26.46C96.907 22.82 98.747 20.98 100.187 20.94C100.547 20.94 100.987 21.1 101.507 21.42C102.027 21.7 102.287 22.02 102.287 22.38C102.287 22.38 100.767 24.34 97.727 28.26C94.727 32.14 93.227 34.9 93.227 36.54C93.227 37.82 93.727 38.46 94.727 38.46C95.367 38.46 96.187 38.2 97.187 37.68C98.227 37.12 99.307 36.42 100.427 35.58C101.547 34.74 102.607 33.84 103.607 32.88C104.647 31.92 105.487 31.04 106.127 30.24C106.527 29.72 106.867 29.36 107.147 29.16C107.467 28.96 107.667 28.86 107.747 28.86C107.907 28.86 107.987 28.98 107.987 29.22C107.987 29.42 107.747 29.82 107.267 30.42C106.827 31.02 106.207 31.72 105.407 32.52C104.447 33.48 103.387 34.52 102.227 35.64C101.067 36.76 99.807 37.72 98.447 38.52C97.087 39.28 95.607 39.66 94.007 39.66Z" fill="white"/>
<path d="M112.282 39.12C110.402 39.12 109.002 38.5 108.082 37.26C107.202 36.02 106.482 34.3 105.922 32.1C105.202 32.82 104.702 33.18 104.422 33.18C104.222 33.18 104.122 33.02 104.122 32.7C104.122 32.46 104.222 32.24 104.422 32.04C104.422 32.04 104.922 31.42 105.922 30.18C106.962 28.94 108.702 27.2 111.142 24.96L118.702 17.88C119.742 16.88 120.562 16.12 121.162 15.6C121.802 15.08 122.262 14.82 122.542 14.82C123.822 14.82 124.462 15.3 124.462 16.26C124.462 16.74 124.202 17.3 123.682 17.94C123.282 18.42 122.982 18.8 122.782 19.08C122.622 19.32 122.522 19.46 122.482 19.5C121.762 20.74 121.102 22.96 120.502 26.16C120.062 28.52 119.682 30.46 119.362 31.98C119.042 33.5 118.782 34.6 118.582 35.28C120.262 35.24 121.922 34.72 123.562 33.72C125.202 32.72 126.962 31.08 128.842 28.8C128.922 28.72 129.042 28.6 129.202 28.44C129.362 28.28 129.522 28.2 129.682 28.2C129.922 28.2 130.042 28.3 130.042 28.5C130.042 28.7 129.982 28.9 129.862 29.1C129.742 29.3 129.622 29.48 129.502 29.64C128.262 31.12 127.102 32.34 126.022 33.3C124.942 34.22 123.802 34.96 122.602 35.52C121.402 36.04 119.982 36.48 118.342 36.84L116.422 38.1C115.902 38.46 115.282 38.72 114.562 38.88C113.842 39.04 113.082 39.12 112.282 39.12ZM113.002 36.06C113.922 36.06 114.682 35.84 115.282 35.4C115.722 35.16 116.142 34.5 116.542 33.42C116.982 32.3 117.402 30.92 117.802 29.28C118.122 27.88 118.362 26.52 118.522 25.2C118.722 23.84 118.902 22.54 119.062 21.3L119.302 19.26C118.382 19.94 117.222 20.92 115.822 22.2C114.422 23.48 113.042 24.82 111.682 26.22C110.322 27.62 109.442 28.66 109.042 29.34C108.642 29.98 108.422 30.46 108.382 30.78C108.222 32.38 108.602 33.66 109.522 34.62C110.482 35.58 111.642 36.06 113.002 36.06Z" fill="white"/>
<path d="M130.665 39.36C129.385 39.36 128.365 39.06 127.605 38.46C126.885 37.82 126.525 36.7 126.525 35.1C126.525 34.18 126.805 33.02 127.365 31.62C127.925 30.18 128.625 28.64 129.465 27C130.305 25.36 131.145 23.74 131.985 22.14C131.465 22.26 131.005 22.32 130.605 22.32C129.405 22.32 128.805 21.86 128.805 20.94C128.805 20.5 128.965 20.16 129.285 19.92C129.645 19.68 129.965 19.54 130.245 19.5C130.245 19.5 130.285 19.5 130.365 19.5C130.485 19.5 130.625 19.48 130.785 19.44H134.265C134.985 18.52 135.725 17.54 136.485 16.5C137.565 15.14 138.425 14.34 139.065 14.1H139.245C139.525 14.1 139.925 14.24 140.445 14.52C141.085 14.88 141.405 15.24 141.405 15.6C141.405 16.12 140.445 17.46 138.525 19.62C138.885 19.66 139.405 19.68 140.085 19.68C140.765 19.68 141.605 19.68 142.605 19.68C143.085 19.68 143.765 19.68 144.645 19.68C145.565 19.68 146.505 19.68 147.465 19.68C148.465 19.64 149.325 19.62 150.045 19.62C150.765 19.58 151.165 19.56 151.245 19.56C151.365 19.6 151.425 19.66 151.425 19.74C151.425 20.1 149.065 20.58 144.345 21.18C141.665 21.54 139.605 21.82 138.165 22.02C136.765 22.22 136.005 22.34 135.885 22.38C135.325 22.86 134.645 23.68 133.845 24.84C133.045 26 132.245 27.3 131.445 28.74C130.645 30.18 129.965 31.56 129.405 32.88C128.885 34.16 128.625 35.16 128.625 35.88C128.625 36.52 128.865 37.06 129.345 37.5C129.825 37.9 130.605 38.1 131.685 38.1C132.405 38.1 133.265 37.94 134.265 37.62C135.265 37.3 136.205 36.94 137.085 36.54C138.005 36.1 138.665 35.76 139.065 35.52C140.105 34.88 141.245 34.04 142.485 33C143.765 31.92 145.025 30.7 146.265 29.34C146.825 28.78 147.205 28.5 147.405 28.5C147.525 28.5 147.585 28.58 147.585 28.74C147.585 29.06 147.285 29.58 146.685 30.3C145.725 31.46 144.645 32.58 143.445 33.66C142.285 34.7 140.985 35.66 139.545 36.54C137.905 37.54 136.325 38.26 134.805 38.7C133.325 39.14 131.945 39.36 130.665 39.36Z" fill="white"/>
<path d="M158.017 18.36C157.337 18.36 156.737 18.14 156.217 17.7C155.737 17.26 155.497 16.76 155.497 16.2C155.497 15.08 156.257 14.52 157.777 14.52C158.337 14.52 158.897 14.72 159.457 15.12C160.017 15.48 160.297 15.94 160.297 16.5C160.297 16.98 160.037 17.42 159.517 17.82C158.997 18.18 158.497 18.36 158.017 18.36ZM146.917 39.66C146.037 39.66 145.317 39.38 144.757 38.82C144.157 38.22 143.857 37.18 143.857 35.7C143.857 34.86 144.057 33.9 144.457 32.82C144.817 31.7 145.277 30.58 145.837 29.46C146.437 28.34 147.017 27.34 147.577 26.46C149.817 22.82 151.657 20.98 153.097 20.94C153.457 20.94 153.897 21.1 154.417 21.42C154.937 21.7 155.197 22.02 155.197 22.38C155.197 22.38 153.677 24.34 150.637 28.26C147.637 32.14 146.137 34.9 146.137 36.54C146.137 37.82 146.637 38.46 147.637 38.46C148.277 38.46 149.097 38.2 150.097 37.68C151.137 37.12 152.217 36.42 153.337 35.58C154.457 34.74 155.517 33.84 156.517 32.88C157.557 31.92 158.397 31.04 159.037 30.24C159.437 29.72 159.777 29.36 160.057 29.16C160.377 28.96 160.577 28.86 160.657 28.86C160.817 28.86 160.897 28.98 160.897 29.22C160.897 29.42 160.657 29.82 160.177 30.42C159.737 31.02 159.117 31.72 158.317 32.52C157.357 33.48 156.297 34.52 155.137 35.64C153.977 36.76 152.717 37.72 151.357 38.52C149.997 39.28 148.517 39.66 146.917 39.66Z" fill="white"/>
<path d="M162.312 39.3C161.352 39.3 160.392 38.96 159.432 38.28C158.472 37.6 157.932 36.8 157.812 35.88C157.412 32.8 159.352 29.14 163.632 24.9C167.872 20.66 171.692 18.54 175.092 18.54C176.012 18.54 176.732 18.76 177.252 19.2C177.532 19.48 177.732 19.86 177.852 20.34C178.012 20.82 178.132 21.06 178.212 21.06C178.372 21.06 178.512 21.04 178.632 21C178.752 20.92 178.892 20.88 179.052 20.88C179.532 20.88 179.952 21.06 180.312 21.42C180.672 21.78 180.872 22.1 180.912 22.38C180.952 22.46 179.672 24.44 177.072 28.32C174.472 32.12 173.292 34.7 173.532 36.06C173.732 36.98 174.172 37.44 174.852 37.44C176.932 37.44 180.732 34 186.252 27.12C186.372 26.96 186.492 26.88 186.612 26.88C186.812 26.88 186.912 27.02 186.912 27.3C186.912 27.62 186.732 28.02 186.372 28.5C181.292 35.34 177.392 38.76 174.672 38.76C174.312 38.76 173.972 38.7 173.652 38.58C171.892 37.9 171.012 36.58 171.012 34.62C171.012 33.94 171.092 33.26 171.252 32.58L167.532 36.18C166.412 37.3 165.392 38.1 164.472 38.58C163.592 39.06 162.872 39.3 162.312 39.3ZM161.772 37.98C164.092 37.98 167.252 35.44 171.252 30.36L177.612 21.6C177.292 21.04 176.772 20.76 176.052 20.76C173.612 20.76 170.312 22.72 166.152 26.64C161.832 30.64 159.892 33.94 160.332 36.54C160.532 37.5 161.012 37.98 161.772 37.98Z" fill="white"/>
<path d="M198.319 39.12C197.239 39.12 196.479 38.82 196.039 38.22C195.599 37.58 195.379 36.8 195.379 35.88C195.379 33.56 196.179 31.08 197.779 28.44L201.619 22.2C198.899 24.2 196.199 26.7 193.519 29.7C192.799 30.5 191.979 31.44 191.059 32.52C190.179 33.6 189.199 34.84 188.119 36.24C186.679 38.12 185.819 39.06 185.539 39.06C184.979 39.06 184.519 38.82 184.159 38.34C183.799 37.82 183.619 37.36 183.619 36.96C183.619 36.64 183.719 36.06 183.919 35.22C184.119 34.34 184.359 33.58 184.639 32.94C184.919 32.26 185.199 31.6 185.479 30.96C185.799 30.28 186.099 29.62 186.379 28.98L182.779 32.76C182.699 32.84 182.459 33.08 182.059 33.48C181.659 33.88 181.339 34.08 181.099 34.08C180.899 34.08 180.799 33.94 180.799 33.66C180.799 33.58 180.839 33.48 180.919 33.36C180.959 33.2 181.079 33.02 181.279 32.82C181.879 32.22 182.499 31.58 183.139 30.9C183.779 30.22 184.439 29.44 185.119 28.56C185.479 28.12 186.019 27.46 186.739 26.58C187.459 25.66 188.239 24.68 189.079 23.64C189.959 22.6 190.779 21.64 191.539 20.76C191.739 20.48 191.959 20.3 192.199 20.22C192.439 20.1 192.599 20.04 192.679 20.04C193.759 20.04 194.299 20.46 194.299 21.3C194.299 21.54 194.239 21.78 194.119 22.02C190.519 26.98 188.359 30.76 187.639 33.36C192.279 28.72 195.999 25.24 198.799 22.92C201.639 20.56 203.659 19.38 204.859 19.38C205.499 19.38 205.979 19.48 206.299 19.68C206.659 19.88 206.839 20.26 206.839 20.82C206.839 21.02 206.819 21.18 206.779 21.3C206.659 21.58 205.839 22.7 204.319 24.66C203.399 25.78 202.579 26.8 201.859 27.72C201.179 28.64 200.619 29.44 200.179 30.12C199.459 31.24 198.919 32.3 198.559 33.3C198.199 34.26 198.019 35.08 198.019 35.76C198.019 36.04 198.059 36.38 198.139 36.78C198.219 37.18 198.459 37.38 198.859 37.38C199.779 37.38 201.219 36.58 203.179 34.98C204.099 34.18 204.959 33.38 205.759 32.58C206.559 31.74 207.319 30.92 208.039 30.12C208.199 29.96 208.459 29.66 208.819 29.22C209.179 28.74 209.399 28.5 209.479 28.5C209.639 28.5 209.719 28.66 209.719 28.98C209.719 29.14 209.619 29.42 209.419 29.82C209.259 30.18 209.079 30.46 208.879 30.66C208.439 31.18 207.779 31.9 206.899 32.82C206.059 33.74 205.099 34.68 204.019 35.64C202.979 36.6 201.959 37.42 200.959 38.1C199.959 38.78 199.079 39.12 198.319 39.12Z" fill="white"/>
<path d="M232.5 128.8C229.82 128.8 227.32 128.46 225 127.78C222.72 127.1 220.86 126.06 219.42 124.66C218.02 123.26 217.32 121.5 217.32 119.38C217.32 117.74 217.84 116.1 218.88 114.46C222.56 108.62 228.84 104.28 237.72 101.44C236.4 99.92 235.74 98.2 235.74 96.28C235.74 94.72 236.16 93.38 237 92.26C238.64 90.02 241.12 88.16 244.44 86.68C246.32 85.88 248.22 85.26 250.14 84.82C252.1 84.38 254.08 84.16 256.08 84.16C258.56 84.16 260.44 84.56 261.72 85.36C263.04 86.16 263.7 87.28 263.7 88.72C263.7 89.72 263.42 90.64 262.86 91.48C262.34 92.28 261.68 92.94 260.88 93.46C260.08 93.94 259.26 94.18 258.42 94.18C257.18 94.18 256.56 93.88 256.56 93.28C256.56 92.92 256.82 92.74 257.34 92.74C257.5 92.74 257.7 92.78 257.94 92.86C258.22 92.9 258.42 92.92 258.54 92.92C259.38 92.92 260.12 92.48 260.76 91.6C261.4 90.72 261.72 89.84 261.72 88.96C261.72 87.68 261.1 86.76 259.86 86.2C258.66 85.64 257.3 85.36 255.78 85.36C251.98 85.36 248.26 86.58 244.62 89.02C240.78 91.54 238.86 94.38 238.86 97.54C238.86 98.7 239.26 99.78 240.06 100.78C241.46 100.34 242.76 100.04 243.96 99.88C245.2 99.68 246.38 99.58 247.5 99.58C251.34 99.58 253.26 100.32 253.26 101.8C253.26 102.48 252.98 103.08 252.42 103.6C251.86 104.08 251.14 104.46 250.26 104.74C249.42 104.98 248.56 105.1 247.68 105.1C246.76 105.1 245.74 104.98 244.62 104.74C243.5 104.5 242.42 104.18 241.38 103.78C240.34 103.38 239.46 102.92 238.74 102.4C234.98 103.48 231.64 105.16 228.72 107.44C225.84 109.68 223.7 112.2 222.3 115C221.54 116.52 221.16 118 221.16 119.44C221.16 121.2 221.66 122.64 222.66 123.76C223.66 124.88 224.98 125.7 226.62 126.22C228.3 126.74 230.14 127 232.14 127C235.46 127 238.76 126.46 242.04 125.38C245.32 124.34 248.12 122.78 250.44 120.7C253.6 117.9 255.18 114.96 255.18 111.88C255.18 109.44 254 108.22 251.64 108.22C250.4 108.22 249.02 108.54 247.5 109.18C245.98 109.78 244.54 110.6 243.18 111.64C241.86 112.68 240.76 113.82 239.88 115.06C239 116.3 238.56 117.56 238.56 118.84C238.56 120.12 239.12 120.9 240.24 121.18C240.64 121.34 240.84 121.54 240.84 121.78C240.84 122.1 240.54 122.26 239.94 122.26C237.82 122.26 236.76 121.08 236.76 118.72C236.76 117.16 237.22 115.68 238.14 114.28C239.06 112.88 240.24 111.64 241.68 110.56C243.16 109.48 244.76 108.64 246.48 108.04C248.2 107.4 249.86 107.08 251.46 107.08C253.34 107.08 254.8 107.5 255.84 108.34C256.88 109.14 257.4 110.46 257.4 112.3C257.4 116.02 255.34 119.52 251.22 122.8C248.62 124.92 245.74 126.44 242.58 127.36C239.42 128.32 236.06 128.8 232.5 128.8ZM247.14 103.78C249.3 103.78 250.38 103.16 250.38 101.92C250.38 101.36 249.3 101.08 247.14 101.08C246.18 101.08 245.18 101.14 244.14 101.26C243.14 101.38 242.12 101.54 241.08 101.74C242.8 103.1 244.82 103.78 247.14 103.78Z" fill="white"/>
<path d="M263.184 124.12C262.024 124.12 260.944 123.84 259.944 123.28C258.944 122.68 258.444 121.7 258.444 120.34C258.444 118.46 259.104 116.22 260.424 113.62C261.784 111.02 263.324 108.32 265.044 105.52C269.724 97.92 273.044 94.12 275.004 94.12C275.404 94.12 275.804 94.28 276.204 94.6C276.644 94.88 276.884 95.2 276.924 95.56L272.724 101.2C271.084 103.4 269.604 105.44 268.284 107.32C266.964 109.16 265.824 110.82 264.864 112.3C264.384 113.06 263.844 113.92 263.244 114.88C262.644 115.84 262.104 116.84 261.624 117.88C261.184 118.88 260.964 119.9 260.964 120.94C260.964 121.42 261.104 121.86 261.384 122.26C261.664 122.62 262.164 122.8 262.884 122.8C264.164 122.8 265.844 122.12 267.924 120.76C270.004 119.36 272.064 117.44 274.104 115C274.304 114.76 274.524 114.54 274.764 114.34C275.004 114.14 275.204 114.04 275.364 114.04C275.564 114.04 275.664 114.16 275.664 114.4C275.664 114.52 275.524 114.76 275.244 115.12C275.004 115.44 274.804 115.7 274.644 115.9L273.204 117.52C272.404 118.4 271.444 119.36 270.324 120.4C269.244 121.44 268.084 122.32 266.844 123.04C265.644 123.76 264.424 124.12 263.184 124.12Z" fill="white"/>
<path d="M280.114 124.12C278.234 124.12 276.834 123.5 275.914 122.26C275.034 121.02 274.314 119.3 273.754 117.1C273.034 117.82 272.534 118.18 272.254 118.18C272.054 118.18 271.954 118.02 271.954 117.7C271.954 117.46 272.054 117.24 272.254 117.04C272.254 117.04 272.754 116.42 273.754 115.18C274.794 113.94 276.534 112.2 278.974 109.96L286.534 102.88C287.574 101.88 288.394 101.12 288.994 100.6C289.634 100.08 290.094 99.82 290.374 99.82C291.654 99.82 292.294 100.3 292.294 101.26C292.294 101.74 292.034 102.3 291.514 102.94C291.114 103.42 290.814 103.8 290.614 104.08C290.454 104.32 290.354 104.46 290.314 104.5C289.594 105.74 288.934 107.96 288.334 111.16C287.894 113.52 287.514 115.46 287.194 116.98C286.874 118.5 286.614 119.6 286.414 120.28C288.094 120.24 289.754 119.72 291.394 118.72C293.034 117.72 294.794 116.08 296.674 113.8C296.754 113.72 296.874 113.6 297.034 113.44C297.194 113.28 297.354 113.2 297.514 113.2C297.754 113.2 297.874 113.3 297.874 113.5C297.874 113.7 297.814 113.9 297.694 114.1C297.574 114.3 297.454 114.48 297.334 114.64C296.094 116.12 294.934 117.34 293.854 118.3C292.774 119.22 291.634 119.96 290.434 120.52C289.234 121.04 287.814 121.48 286.174 121.84L284.254 123.1C283.734 123.46 283.114 123.72 282.394 123.88C281.674 124.04 280.914 124.12 280.114 124.12ZM280.834 121.06C281.754 121.06 282.514 120.84 283.114 120.4C283.554 120.16 283.974 119.5 284.374 118.42C284.814 117.3 285.234 115.92 285.634 114.28C285.954 112.88 286.194 111.52 286.354 110.2C286.554 108.84 286.734 107.54 286.894 106.3L287.134 104.26C286.214 104.94 285.054 105.92 283.654 107.2C282.254 108.48 280.874 109.82 279.514 111.22C278.154 112.62 277.274 113.66 276.874 114.34C276.474 114.98 276.254 115.46 276.214 115.78C276.054 117.38 276.434 118.66 277.354 119.62C278.314 120.58 279.474 121.06 280.834 121.06Z" fill="white"/>
<path d="M298.797 124.3C297.837 124.3 296.877 123.96 295.917 123.28C294.957 122.6 294.417 121.8 294.297 120.88C293.897 117.8 295.837 114.14 300.117 109.9C304.357 105.66 308.177 103.54 311.577 103.54C312.497 103.54 313.217 103.76 313.737 104.2C314.017 104.48 314.217 104.86 314.337 105.34C314.497 105.82 314.617 106.06 314.697 106.06C314.857 106.06 314.997 106.04 315.117 106C315.237 105.92 315.377 105.88 315.537 105.88C316.017 105.88 316.437 106.06 316.797 106.42C317.157 106.78 317.357 107.1 317.397 107.38C317.437 107.46 316.157 109.44 313.557 113.32C310.957 117.12 309.777 119.7 310.017 121.06C310.217 121.98 310.657 122.44 311.337 122.44C313.417 122.44 317.217 119 322.737 112.12C322.857 111.96 322.977 111.88 323.097 111.88C323.297 111.88 323.397 112.02 323.397 112.3C323.397 112.62 323.217 113.02 322.857 113.5C317.777 120.34 313.877 123.76 311.157 123.76C310.797 123.76 310.457 123.7 310.137 123.58C308.377 122.9 307.497 121.58 307.497 119.62C307.497 118.94 307.577 118.26 307.737 117.58L304.017 121.18C302.897 122.3 301.877 123.1 300.957 123.58C300.077 124.06 299.357 124.3 298.797 124.3ZM298.257 122.98C300.577 122.98 303.737 120.44 307.737 115.36L314.097 106.6C313.777 106.04 313.257 105.76 312.537 105.76C310.097 105.76 306.797 107.72 302.637 111.64C298.317 115.64 296.377 118.94 296.817 121.54C297.017 122.5 297.497 122.98 298.257 122.98Z" fill="white"/>
<path d="M40.975 44.2788H52.1078L52.3768 49.4648H51.7367C51.3161 46.4157 50.2152 44.8911 48.4339 44.8911C48.0752 44.8911 47.8278 44.953 47.6918 45.0767C47.5619 45.2004 47.4969 45.4045 47.4969 45.689V56.6548C47.4969 56.8774 47.5619 57.0413 47.6918 57.1465C47.8216 57.2516 48.035 57.3042 48.3319 57.3042H49.7142V58H43.3407V57.3042H44.9178C45.1281 57.3042 45.2889 57.2516 45.4003 57.1465C45.5116 57.0413 45.5672 56.9022 45.5672 56.729V45.6055C45.5672 45.3704 45.4961 45.1942 45.3539 45.0767C45.2116 44.953 44.9828 44.8911 44.6673 44.8911C43.7705 44.8911 43.0222 45.3148 42.4222 46.1621C41.9274 46.861 41.5718 47.9619 41.3553 49.4648H40.6781L40.975 44.2788Z" fill="white"/>
<path d="M55.0379 44.2788H61.3651V44.9746H60.2796C59.7972 44.9746 59.4911 45.0365 59.3612 45.1602C59.2375 45.2777 59.1756 45.5313 59.1756 45.9209V56.3115C59.1756 56.7259 59.2313 56.9857 59.3426 57.0908C59.4911 57.2331 59.7601 57.3042 60.1497 57.3042H61.3651V58H55.0379V57.3042H56.2347C56.6553 57.3042 56.9274 57.2424 57.0511 57.1187C57.1748 56.995 57.2367 56.7259 57.2367 56.3115V45.9209C57.2367 45.5251 57.181 45.2808 57.0697 45.188C56.8965 45.0457 56.578 44.9746 56.1141 44.9746H55.0379V44.2788Z" fill="white"/>
<path d="M70.8636 43.9912C72.0202 43.9912 73.1025 44.2974 74.1107 44.9097C75.125 45.5158 75.9167 46.3662 76.4857 47.4609C77.0609 48.5495 77.3485 49.7772 77.3485 51.144C77.3485 52.5109 77.0609 53.7448 76.4857 54.8457C75.9105 55.9466 75.1188 56.8063 74.1107 57.4248C73.1087 58.0371 72.0449 58.3433 70.9193 58.3433C69.8183 58.3433 68.7855 58.0433 67.8206 57.4434C66.8558 56.8372 66.0796 55.9745 65.492 54.855C64.9106 53.7293 64.6199 52.4831 64.6199 51.1162C64.6199 49.7679 64.9014 48.5526 65.4642 47.4702C66.0332 46.3817 66.8094 45.5313 67.7928 44.9189C68.7762 44.3005 69.7998 43.9912 70.8636 43.9912ZM71.012 44.7056C69.806 44.7056 68.8288 45.2065 68.0804 46.2085C67.332 47.2105 66.9578 48.8433 66.9578 51.1069C66.9578 53.5623 67.3413 55.2601 68.1082 56.2002C68.8752 57.1403 69.8245 57.6104 70.9564 57.6104C71.748 57.6104 72.4438 57.397 73.0438 56.9702C73.6437 56.5435 74.1199 55.8662 74.4725 54.9385C74.8312 54.0107 75.0106 52.7923 75.0106 51.2832C75.0106 49.638 74.8436 48.3547 74.5096 47.4331C74.1756 46.5054 73.6994 45.8189 73.0809 45.3735C72.4624 44.9282 71.7728 44.7056 71.012 44.7056Z" fill="white"/>
<path d="M80.5477 44.2788H87.6356C88.687 44.2788 89.5807 44.4644 90.3167 44.8355C91.2321 45.3055 92.0083 46.0879 92.6453 47.1826C93.2885 48.2773 93.6102 49.5731 93.6102 51.0698C93.6102 52.3068 93.4184 53.4201 93.035 54.4097C92.7443 55.1704 92.2959 55.8353 91.6898 56.4043C91.0898 56.9733 90.3569 57.4001 89.491 57.6846C88.8416 57.8949 87.9757 58 86.8934 58H80.5477V57.3042H81.8465C82.1743 57.3042 82.4 57.2516 82.5237 57.1465C82.6536 57.0413 82.7186 56.8774 82.7186 56.6548V45.6055C82.7186 45.4137 82.6505 45.2622 82.5145 45.1509C82.3784 45.0334 82.1898 44.9746 81.9485 44.9746H80.5477V44.2788ZM85.5203 44.9746C85.242 44.9746 85.0348 45.0334 84.8987 45.1509C84.7689 45.2684 84.7039 45.4447 84.7039 45.6797V56.627C84.7039 56.8496 84.7812 57.0197 84.9358 57.1372C85.0905 57.2485 85.3533 57.3042 85.7244 57.3042H86.8934C87.9386 57.3042 88.854 57.0352 89.6395 56.4971C90.1528 56.1384 90.5425 55.6343 90.8084 54.9849C91.1733 54.1066 91.3558 52.8944 91.3558 51.3481C91.3558 49.0597 90.9568 47.3836 90.159 46.3198C89.4787 45.423 88.452 44.9746 87.0789 44.9746H85.5203Z" fill="white"/>
<path d="M96.9114 44.2788H103.239V44.9746H102.153C101.671 44.9746 101.365 45.0365 101.235 45.1602C101.111 45.2777 101.049 45.5313 101.049 45.9209V56.3115C101.049 56.7259 101.105 56.9857 101.216 57.0908C101.365 57.2331 101.634 57.3042 102.023 57.3042H103.239V58H96.9114V57.3042H98.1082C98.5288 57.3042 98.8009 57.2424 98.9246 57.1187C99.0483 56.995 99.1101 56.7259 99.1101 56.3115V45.9209C99.1101 45.5251 99.0545 45.2808 98.9431 45.188C98.77 45.0457 98.4514 44.9746 97.9876 44.9746H96.9114V44.2788Z" fill="white"/>
<path d="M106.243 44.2788H109.518L117.793 55.0591V47.2568C117.793 46.4714 117.614 45.89 117.255 45.5127C116.927 45.1663 116.439 44.987 115.789 44.9746V44.2788H120.586V44.9746C120.097 44.9746 119.732 45.0426 119.491 45.1787C119.25 45.3148 119.039 45.5622 118.86 45.9209C118.681 46.2796 118.591 46.6724 118.591 47.0991V58H117.719L109.156 46.7837V55.0591C109.156 55.8075 109.345 56.3672 109.722 56.7383C110.099 57.1032 110.684 57.2918 111.475 57.3042V58H106.243V57.3042C106.899 57.2795 107.418 57.0661 107.802 56.6641C108.185 56.2559 108.377 55.758 108.377 55.1704V45.8652L108.219 45.6982C107.91 45.3643 107.69 45.1663 107.56 45.1045C107.381 45.0179 107.149 44.9746 106.865 44.9746H106.243V44.2788Z" fill="white"/>
<path d="M129.11 43.9912H129.732L134.658 56.5435C134.856 57.0506 135.261 57.3042 135.873 57.3042H136.3V58H130.826V57.3042H131.262C131.831 57.3042 132.233 57.2424 132.469 57.1187C132.629 57.0321 132.71 56.8991 132.71 56.7197C132.71 56.6146 132.688 56.5033 132.645 56.3857L131.504 53.4727H126.086L125.446 55.1426C125.279 55.5879 125.195 55.9404 125.195 56.2002C125.195 56.5033 125.334 56.763 125.613 56.9795C125.897 57.196 126.308 57.3042 126.846 57.3042H127.31V58H122.338V57.3042C122.87 57.3042 123.29 57.1898 123.599 56.9609C123.909 56.7259 124.193 56.2837 124.453 55.6343L129.11 43.9912ZM128.841 46.6353L126.383 52.749H131.235L128.841 46.6353Z" fill="white"/>
<path d="M137.505 44.2788H148.637L148.906 49.4648H148.266C147.846 46.4157 146.745 44.8911 144.964 44.8911C144.605 44.8911 144.357 44.953 144.221 45.0767C144.092 45.2004 144.027 45.4045 144.027 45.689V56.6548C144.027 56.8774 144.092 57.0413 144.221 57.1465C144.351 57.2516 144.565 57.3042 144.862 57.3042H146.244V58H139.87V57.3042H141.447C141.658 57.3042 141.819 57.2516 141.93 57.1465C142.041 57.0413 142.097 56.9022 142.097 56.729V45.6055C142.097 45.3704 142.026 45.1942 141.884 45.0767C141.741 44.953 141.512 44.8911 141.197 44.8911C140.3 44.8911 139.552 45.3148 138.952 46.1621C138.457 46.861 138.101 47.9619 137.885 49.4648H137.208L137.505 44.2788Z" fill="white"/>
<path d="M156.438 43.9912H157.06L161.986 56.5435C162.184 57.0506 162.589 57.3042 163.201 57.3042H163.628V58H158.154V57.3042H158.591C159.16 57.3042 159.562 57.2424 159.797 57.1187C159.957 57.0321 160.038 56.8991 160.038 56.7197C160.038 56.6146 160.016 56.5033 159.973 56.3857L158.832 53.4727H153.414L152.774 55.1426C152.607 55.5879 152.523 55.9404 152.523 56.2002C152.523 56.5033 152.662 56.763 152.941 56.9795C153.225 57.196 153.636 57.3042 154.175 57.3042H154.638V58H149.666V57.3042C150.198 57.3042 150.618 57.1898 150.927 56.9609C151.237 56.7259 151.521 56.2837 151.781 55.6343L156.438 43.9912ZM156.169 46.6353L153.711 52.749H158.563L156.169 46.6353Z" fill="white"/>
<path d="M250.975 129.279H262.108L262.377 134.465H261.737C261.316 131.416 260.215 129.891 258.434 129.891C258.075 129.891 257.828 129.953 257.692 130.077C257.562 130.2 257.497 130.404 257.497 130.689V141.655C257.497 141.877 257.562 142.041 257.692 142.146C257.822 142.252 258.035 142.304 258.332 142.304H259.714V143H253.341V142.304H254.918C255.128 142.304 255.289 142.252 255.4 142.146C255.512 142.041 255.567 141.902 255.567 141.729V130.605C255.567 130.37 255.496 130.194 255.354 130.077C255.212 129.953 254.983 129.891 254.667 129.891C253.771 129.891 253.022 130.315 252.422 131.162C251.927 131.861 251.572 132.962 251.355 134.465H250.678L250.975 129.279Z" fill="white"/>
<path d="M265.955 129.279H273.043C274.416 129.279 275.48 129.591 276.235 130.216C276.995 130.84 277.376 131.66 277.376 132.674C277.376 133.28 277.224 133.822 276.921 134.298C276.624 134.768 276.191 135.145 275.622 135.43C275.059 135.708 274.172 135.909 272.96 136.033C273.844 136.274 274.453 136.512 274.787 136.747C275.121 136.976 275.387 137.276 275.585 137.647C275.789 138.012 276.021 138.76 276.281 139.892C276.466 140.702 276.664 141.256 276.875 141.553C277.036 141.782 277.209 141.896 277.394 141.896C277.586 141.896 277.762 141.757 277.923 141.479C278.09 141.194 278.192 140.696 278.229 139.985H278.86C278.743 142.088 277.966 143.139 276.531 143.139C276.08 143.139 275.687 143.025 275.353 142.796C275.025 142.567 274.778 142.23 274.611 141.785C274.481 141.451 274.336 140.576 274.175 139.159C274.082 138.337 273.934 137.752 273.73 137.406C273.532 137.059 273.219 136.781 272.793 136.571C272.366 136.361 271.856 136.255 271.262 136.255H270.139V141.646C270.139 141.874 270.198 142.035 270.316 142.128C270.464 142.245 270.696 142.304 271.011 142.304H272.329V143H265.955V142.304H267.3C267.597 142.304 267.814 142.245 267.95 142.128C268.092 142.01 268.163 141.85 268.163 141.646V130.68C268.163 130.445 268.092 130.268 267.95 130.151C267.808 130.033 267.591 129.975 267.3 129.975H265.955V129.279ZM270.139 135.587H271.763C272.851 135.587 273.702 135.383 274.314 134.975C274.933 134.561 275.242 133.828 275.242 132.776C275.242 132.053 275.124 131.481 274.889 131.06C274.661 130.639 274.357 130.352 273.98 130.197C273.603 130.043 272.861 129.965 271.754 129.965C271.024 129.965 270.572 130.018 270.399 130.123C270.226 130.222 270.139 130.395 270.139 130.643V135.587Z" fill="white"/>
<path d="M282.568 129.279H288.896V129.975H287.81C287.328 129.975 287.022 130.036 286.892 130.16C286.768 130.278 286.706 130.531 286.706 130.921V141.312C286.706 141.726 286.762 141.986 286.873 142.091C287.022 142.233 287.291 142.304 287.68 142.304H288.896V143H282.568V142.304H283.765C284.186 142.304 284.458 142.242 284.582 142.119C284.705 141.995 284.767 141.726 284.767 141.312V130.921C284.767 130.525 284.711 130.281 284.6 130.188C284.427 130.046 284.108 129.975 283.645 129.975H282.568V129.279Z" fill="white"/>
<path d="M300.71 129.279H307.046V129.975H305.775C305.435 129.975 305.197 130.03 305.061 130.142C304.925 130.253 304.857 130.423 304.857 130.652V138.398C304.857 139.209 304.928 139.821 305.07 140.235C305.28 140.848 305.664 141.336 306.22 141.701C306.783 142.066 307.516 142.249 308.419 142.249C309.669 142.249 310.621 141.927 311.277 141.284C311.932 140.634 312.26 139.768 312.26 138.686V132.387C312.26 131.83 312.22 131.41 312.139 131.125C312.065 130.834 311.954 130.609 311.805 130.448C311.663 130.287 311.481 130.169 311.258 130.095C311.035 130.015 310.664 129.975 310.145 129.975V129.279H315.331V129.975H314.96C314.378 129.975 313.945 130.132 313.661 130.448C313.376 130.757 313.234 131.208 313.234 131.802V138.547C313.234 140.019 312.814 141.148 311.972 141.933C311.026 142.818 309.767 143.26 308.197 143.26C306.836 143.26 305.766 143.068 304.987 142.685C304.207 142.295 303.641 141.738 303.289 141.015C303.023 140.464 302.89 139.771 302.89 138.937V130.652C302.89 130.442 302.816 130.278 302.667 130.16C302.525 130.036 302.308 129.975 302.018 129.975H300.71V129.279Z" fill="white"/>
<path d="M319.197 129.279H330.33L330.599 134.465H329.959C329.538 131.416 328.437 129.891 326.656 129.891C326.297 129.891 326.05 129.953 325.914 130.077C325.784 130.2 325.719 130.404 325.719 130.689V141.655C325.719 141.877 325.784 142.041 325.914 142.146C326.044 142.252 326.257 142.304 326.554 142.304H327.936V143H321.563V142.304H323.14C323.35 142.304 323.511 142.252 323.622 142.146C323.733 142.041 323.789 141.902 323.789 141.729V130.605C323.789 130.37 323.718 130.194 323.576 130.077C323.433 129.953 323.205 129.891 322.889 129.891C321.992 129.891 321.244 130.315 320.644 131.162C320.149 131.861 319.794 132.962 319.577 134.465H318.9L319.197 129.279Z" fill="white"/>
<path d="M339.27 128.991H339.892L344.818 141.543C345.016 142.051 345.421 142.304 346.034 142.304H346.46V143H340.987V142.304H341.423C341.992 142.304 342.394 142.242 342.629 142.119C342.79 142.032 342.87 141.899 342.87 141.72C342.87 141.615 342.848 141.503 342.805 141.386L341.664 138.473H336.246L335.606 140.143C335.439 140.588 335.355 140.94 335.355 141.2C335.355 141.503 335.495 141.763 335.773 141.979C336.057 142.196 336.469 142.304 337.007 142.304H337.471V143H332.498V142.304C333.03 142.304 333.45 142.19 333.76 141.961C334.069 141.726 334.353 141.284 334.613 140.634L339.27 128.991ZM339.001 131.635L336.543 137.749H341.395L339.001 131.635Z" fill="white"/>
<path d="M349.51 129.279H356.598C357.971 129.279 359.035 129.591 359.789 130.216C360.55 130.84 360.93 131.66 360.93 132.674C360.93 133.28 360.779 133.822 360.476 134.298C360.179 134.768 359.746 135.145 359.177 135.43C358.614 135.708 357.727 135.909 356.514 136.033C357.399 136.274 358.008 136.512 358.342 136.747C358.676 136.976 358.942 137.276 359.14 137.647C359.344 138.012 359.576 138.76 359.836 139.892C360.021 140.702 360.219 141.256 360.429 141.553C360.59 141.782 360.763 141.896 360.949 141.896C361.141 141.896 361.317 141.757 361.478 141.479C361.645 141.194 361.747 140.696 361.784 139.985H362.415C362.297 142.088 361.521 143.139 360.086 143.139C359.635 143.139 359.242 143.025 358.908 142.796C358.58 142.567 358.333 142.23 358.166 141.785C358.036 141.451 357.891 140.576 357.73 139.159C357.637 138.337 357.489 137.752 357.284 137.406C357.087 137.059 356.774 136.781 356.347 136.571C355.921 136.361 355.41 136.255 354.817 136.255H353.694V141.646C353.694 141.874 353.753 142.035 353.87 142.128C354.019 142.245 354.251 142.304 354.566 142.304H355.884V143H349.51V142.304H350.855C351.152 142.304 351.369 142.245 351.505 142.128C351.647 142.01 351.718 141.85 351.718 141.646V130.68C351.718 130.445 351.647 130.268 351.505 130.151C351.362 130.033 351.146 129.975 350.855 129.975H349.51V129.279ZM353.694 135.587H355.318C356.406 135.587 357.257 135.383 357.869 134.975C358.487 134.561 358.797 133.828 358.797 132.776C358.797 132.053 358.679 131.481 358.444 131.06C358.215 130.639 357.912 130.352 357.535 130.197C357.158 130.043 356.415 129.965 355.308 129.965C354.579 129.965 354.127 130.018 353.954 130.123C353.781 130.222 353.694 130.395 353.694 130.643V135.587Z" fill="white"/>
<path d="M366.123 129.279H372.45V129.975H371.365C370.882 129.975 370.576 130.036 370.446 130.16C370.323 130.278 370.261 130.531 370.261 130.921V141.312C370.261 141.726 370.316 141.986 370.428 142.091C370.576 142.233 370.845 142.304 371.235 142.304H372.45V143H366.123V142.304H367.32C367.74 142.304 368.013 142.242 368.136 142.119C368.26 141.995 368.322 141.726 368.322 141.312V130.921C368.322 130.525 368.266 130.281 368.155 130.188C367.982 130.046 367.663 129.975 367.199 129.975H366.123V129.279Z" fill="white"/>
</g>
<defs>
<filter id="filter0_d_33_18" x="0" y="0" width="376.45" height="177.8" filterUnits="userSpaceOnUse" color-interpolation-filters="sRGB">
<feFlood flood-opacity="0" result="BackgroundImageFix"/>
<feColorMatrix in="SourceAlpha" type="matrix" values="0 0 0 0 0 0 0 0 0 0 0 0 0 0 0 0 0 0 127 0" result="hardAlpha"/>
<feOffset dy="4"/>
<feGaussianBlur stdDeviation="2"/>
<feComposite in2="hardAlpha" operator="out"/>
<feColorMatrix type="matrix" values="0 0 0 0 0 0 0 0 0 0 0 0 0 0 0 0 0 0 0.5 0"/>
<feBlend mode="normal" in2="BackgroundImageFix" result="effect1_dropShadow_33_18"/>
<feBlend mode="normal" in="SourceGraphic" in2="effect1_dropShadow_33_18" result="shape"/>
</filter>
</defs>
</svg>
